<svg width="320" height="320" viewBox="0 0 320 320" fill="none" xmlns="http://www.w3.org/2000/svg">
<path d="M230 210H90V220H230V210Z" fill="#EA6D38"/>
<path d="M230 220H90V230H230V220Z" fill="#EA6D38"/>
<path d="M230 230H90V240H230V230Z" fill="#EA6D38"/>
<path d="M230 240H90V250H230V240Z" fill="#EA6D38"/>
<path d="M110 250H90V260H110V250Z" fill="#EA6D38"/>
<path d="M230 250H120V260H230V250Z" fill="#EA6D38"/>
<path d="M110 260H90V270H110V260Z" fill="#EA6D38"/>
<path d="M230 260H120V270H230V260Z" fill="#EA6D38"/>
<path d="M110 270H90V280H110V270Z" fill="#EA6D38"/>
<path d="M230 270H120V280H230V270Z" fill="#EA6D38"/>
<path d="M110 280H90V290H110V280Z" fill="#EA6D38"/>
<path d="M230 280H120V290H230V280Z" fill="#EA6D38"/>
<path d="M110 290H90V300H110V290Z" fill="#EA6D38"/>
<path d="M230 290H120V300H230V290Z" fill="#EA6D38"/>
<path d="M110 300H90V310H110V300Z" fill="#EA6D38"/>
<path d="M230 300H120V310H230V300Z" fill="#EA6D38"/>
<path d="M110 310H90V320H110V310Z" fill="#EA6D38"/>
<path d="M230 310H120V320H230V310Z" fill="#EA6D38"/>
<path d="M230 210H90V220H230V210Z" fill="#EA6D38"/>
<path d="M230 230H90V240H230V230Z" fill="#EA6D38"/>
<path d="M110 250H90V260H110V250Z" fill="#EA6D38"/>
<path d="M230 250H120V260H230V250Z" fill="#EA6D38"/>
<path d="M110 270H90V280H110V270Z" fill="#EA6D38"/>
<path d="M230 270H120V280H230V270Z" fill="#EA6D38"/>
<path d="M110 290H90V300H110V290Z" fill="#EA6D38"/>
<path d="M230 290H120V300H230V290Z" fill="#EA6D38"/>
<path d="M110 310H90V320H110V310Z" fill="#EA6D38"/>
<path d="M230 310H120V320H230V310Z" fill="#EA6D38"/>
<path d="M130 50H80V60H130V50Z" fill="#85634F"/>
<path d="M240 50H190V60H240V50Z" fill="#85634F"/>
<path d="M90 60H80V70H90V60Z" fill="#85634F"/>
<path d="M110 60H90V70H110V60Z" fill="#E8705B"/>
<path d="M130 60H110V70H130V60Z" fill="#85634F"/>
<path d="M210 60H190V70H210V60Z" fill="#85634F"/>
<path d="M230 60H210V70H230V60Z" fill="#E8705B"/>
<path d="M240 60H230V70H240V60Z" fill="#85634F"/>
<path d="M240 70H80V80H240V70Z" fill="#85634F"/>
<path d="M240 80H80V90H240V80Z" fill="#85634F"/>
<path d="M240 90H80V100H240V90Z" fill="#85634F"/>
<path d="M240 100H80V110H240V100Z" fill="#85634F"/>
<path d="M240 110H80V120H240V110Z" fill="#85634F"/>
<path d="M240 120H80V130H240V120Z" fill="#85634F"/>
<path d="M240 130H80V140H240V130Z" fill="#85634F"/>
<path d="M240 140H80V150H240V140Z" fill="#85634F"/>
<path d="M240 150H80V160H240V150Z" fill="#85634F"/>
<path d="M240 160H80V170H240V160Z" fill="#85634F"/>
<path d="M100 170H80V180H100V170Z" fill="#5A423F"/>
<path d="M120 170H100V180H120V170Z" fill="#85634F"/>
<path d="M140 170H120V180H140V170Z" fill="#5A423F"/>
<path d="M160 170H140V180H160V170Z" fill="black"/>
<path d="M170 170H160V180H170V170Z" fill="#F9F4E6"/>
<path d="M180 170H170V180H180V170Z" fill="black"/>
<path d="M190 170H180V180H190V170Z" fill="#F9F4E6"/>
<path d="M210 170H190V180H210V170Z" fill="black"/>
<path d="M220 170H210V180H220V170Z" fill="#5A423F"/>
<path d="M240 170H220V180H240V170Z" fill="#85634F"/>
<path d="M100 180H80V190H100V180Z" fill="#5A423F"/>
<path d="M120 180H100V190H120V180Z" fill="#85634F"/>
<path d="M140 180H120V190H140V180Z" fill="#5A423F"/>
<path d="M210 180H140V190H210V180Z" fill="black"/>
<path d="M220 180H210V190H220V180Z" fill="#5A423F"/>
<path d="M240 180H220V190H240V180Z" fill="#85634F"/>
<path d="M100 190H80V200H100V190Z" fill="#5A423F"/>
<path d="M120 190H100V200H120V190Z" fill="#85634F"/>
<path d="M140 190H120V200H140V190Z" fill="#5A423F"/>
<path d="M160 190H140V200H160V190Z" fill="#85634F"/>
<path d="M180 190H160V200H180V190Z" fill="#5A423F"/>
<path d="M200 190H180V200H200V190Z" fill="#85634F"/>
<path d="M220 190H200V200H220V190Z" fill="#5A423F"/>
<path d="M240 190H220V200H240V190Z" fill="#85634F"/>
<path d="M100 200H80V210H100V200Z" fill="#5A423F"/>
<path d="M120 200H100V210H120V200Z" fill="#85634F"/>
<path d="M140 200H120V210H140V200Z" fill="#5A423F"/>
<path d="M160 200H140V210H160V200Z" fill="#85634F"/>
<path d="M180 200H160V210H180V200Z" fill="#5A423F"/>
<path d="M200 200H180V210H200V200Z" fill="#85634F"/>
<path d="M220 200H200V210H220V200Z" fill="#5A423F"/>
<path d="M240 200H220V210H240V200Z" fill="#85634F"/>
<path d="M230 210H90V220H230V210Z" fill="#5A423F"/>
<path d="M160 110H100V120H160V110Z" fill="#EA6D38"/>
<path d="M230 110H170V120H230V110Z" fill="#EA6D38"/>
<path d="M110 120H100V130H110V120Z" fill="#EA6D38"/>
<path d="M130 120H110V130H130V120Z" fill="white"/>
<path d="M150 120H130V130H150V120Z" fill="black"/>
<path d="M160 120H150V130H160V120Z" fill="#EA6D38"/>
<path d="M180 120H170V130H180V120Z" fill="#EA6D38"/>
<path d="M200 120H180V130H200V120Z" fill="white"/>
<path d="M220 120H200V130H220V120Z" fill="black"/>
<path d="M230 120H220V130H230V120Z" fill="#EA6D38"/>
<path d="M110 130H70V140H110V130Z" fill="#EA6D38"/>
<path d="M130 130H110V140H130V130Z" fill="white"/>
<path d="M150 130H130V140H150V130Z" fill="black"/>
<path d="M180 130H150V140H180V130Z" fill="#EA6D38"/>
<path d="M200 130H180V140H200V130Z" fill="white"/>
<path d="M220 130H200V140H220V130Z" fill="black"/>
<path d="M230 130H220V140H230V130Z" fill="#EA6D38"/>
<path d="M80 140H70V150H80V140Z" fill="#EA6D38"/>
<path d="M110 140H100V150H110V140Z" fill="#EA6D38"/>
<path d="M130 140H110V150H130V140Z" fill="white"/>
<path d="M150 140H130V150H150V140Z" fill="black"/>
<path d="M160 140H150V150H160V140Z" fill="#EA6D38"/>
<path d="M180 140H170V150H180V140Z" fill="#EA6D38"/>
<path d="M200 140H180V150H200V140Z" fill="white"/>
<path d="M220 140H200V150H220V140Z" fill="black"/>
<path d="M230 140H220V150H230V140Z" fill="#EA6D38"/>
<path d="M80 150H70V160H80V150Z" fill="#EA6D38"/>
<path d="M110 150H100V160H110V150Z" fill="#EA6D38"/>
<path d="M130 150H110V160H130V150Z" fill="white"/>
<path d="M150 150H130V160H150V150Z" fill="black"/>
<path d="M160 150H150V160H160V150Z" fill="#EA6D38"/>
<path d="M180 150H170V160H180V150Z" fill="#EA6D38"/>
<path d="M200 150H180V160H200V150Z" fill="white"/>
<path d="M220 150H200V160H220V150Z" fill="black"/>
<path d="M230 150H220V160H230V150Z" fill="#EA6D38"/>
<path d="M160 160H100V170H160V160Z" fill="#EA6D38"/>
<path d="M230 160H170V170H230V160Z" fill="#EA6D38"/>
<path d="M160 240H140V250H160V240Z" fill="#D8DADF"/>
<path d="M190 240H170V250H190V240Z" fill="#D8DADF"/>
<path d="M170 250H130V260H170V250Z" fill="#D8DADF"/>
<path d="M200 250H180V260H200V250Z" fill="#D8DADF"/>
<path d="M160 260H130V270H160V260Z" fill="#D8DADF"/>
<path d="M200 260H170V270H200V260Z" fill="#D8DADF"/>
<path d="M170 270H140V280H170V270Z" fill="#D8DADF"/>
<path d="M190 270H180V280H190V270Z" fill="#D8DADF"/>
<path d="M160 280H150V290H160V280Z" fill="#D8DADF"/>
<path d="M180 280H170V290H180V280Z" fill="#D8DADF"/>
<path d="M170 290H160V300H170V290Z" fill="#D8DADF"/>
</svg>
