<svg width="1022" height="279" viewBox="0 0 1022 279" fill="none" xmlns="http://www.w3.org/2000/svg">
<rect x="507.5" y="79.0005" width="7.5" height="4.30851" fill="black"/>
<rect x="507.5" y="83.3088" width="7.5" height="4.46808" fill="black"/>
<rect x="515" y="83.3088" width="7.5" height="4.46808" fill="black"/>
<rect x="507.5" y="87.7766" width="7.5" height="4.30851" fill="black"/>
<rect x="485" y="89.5" width="30" height="4.5" fill="black"/>
<rect x="515" y="87.7766" width="7.5" height="4.30851" fill="black"/>
<rect x="522.5" y="87.7766" width="7.5" height="4.30851" fill="black"/>
<rect x="507.5" y="92.0854" width="7.5" height="4.30851" fill="black"/>
<rect x="515" y="92.0854" width="7.5" height="4.30851" fill="black"/>
<rect x="522.5" y="92.0854" width="7.5" height="4.30851" fill="black"/>
<rect x="530" y="92.0854" width="7.5" height="4.30851" fill="black"/>
<rect x="507.5" y="96.3936" width="7.5" height="4.30851" fill="black"/>
<rect x="515" y="96.3936" width="7.5" height="4.30851" fill="black"/>
<rect x="522.5" y="96.3936" width="7.5" height="4.30851" fill="black"/>
<rect x="507.5" y="100.702" width="7.5" height="4.46808" fill="black"/>
<rect x="515" y="100.702" width="7.5" height="4.46808" fill="black"/>
<rect x="507.5" y="105.17" width="7.5" height="4.30851" fill="black"/>
<rect x="500" y="93.5854" width="7.5" height="4.30851" fill="black"/>
<rect x="492.5" y="93.5854" width="7.5" height="4.30851" fill="black"/>
<rect x="485" y="93.5854" width="7.5" height="4.30851" fill="black"/>
<path d="M247.196 250V247.984C247.196 246.816 247.388 245.848 247.771 245.08C248.156 244.296 248.708 243.656 249.428 243.16C250.164 242.648 251.06 242.232 252.116 241.912L253.724 241.408C254.316 241.216 254.812 240.984 255.212 240.712C255.612 240.424 255.916 240.08 256.124 239.68C256.348 239.28 256.46 238.824 256.46 238.312V238.216C256.46 237.416 256.188 236.784 255.644 236.32C255.1 235.84 254.356 235.6 253.412 235.6C252.484 235.6 251.732 235.856 251.156 236.368C250.596 236.864 250.316 237.584 250.316 238.528V238.96H247.244V238.576C247.244 237.36 247.516 236.328 248.06 235.48C248.604 234.632 249.34 233.984 250.268 233.536C251.212 233.088 252.26 232.864 253.412 232.864C254.564 232.864 255.604 233.088 256.532 233.536C257.46 233.968 258.188 234.584 258.716 235.384C259.26 236.168 259.532 237.096 259.532 238.168V238.408C259.532 239.48 259.308 240.392 258.859 241.144C258.428 241.88 257.836 242.488 257.084 242.968C256.332 243.432 255.476 243.816 254.516 244.12L252.98 244.6C252.292 244.808 251.756 245.04 251.372 245.296C250.988 245.536 250.716 245.808 250.556 246.112C250.412 246.4 250.34 246.752 250.34 247.168V247.264H259.388V250H247.196ZM262.118 250V233.2H265.142V239.56H265.574C265.702 239.304 265.902 239.048 266.174 238.792C266.446 238.536 266.806 238.328 267.254 238.168C267.718 237.992 268.302 237.904 269.006 237.904C269.934 237.904 270.742 238.12 271.43 238.552C272.134 238.968 272.678 239.552 273.062 240.304C273.446 241.04 273.638 241.904 273.638 242.896V250H270.614V243.136C270.614 242.24 270.39 241.568 269.942 241.12C269.51 240.672 268.886 240.448 268.07 240.448C267.142 240.448 266.422 240.76 265.91 241.384C265.398 241.992 265.142 242.848 265.142 243.952V250H262.118ZM276.907 250V238.096H279.883V239.44H280.315C280.491 238.96 280.779 238.608 281.179 238.384C281.595 238.16 282.075 238.048 282.619 238.048H284.059V240.736H282.571C281.803 240.736 281.171 240.944 280.675 241.36C280.179 241.76 279.931 242.384 279.931 243.232V250H276.907ZM291.085 250.336C289.533 250.336 288.261 250 287.269 249.328C286.277 248.656 285.677 247.696 285.469 246.448L288.253 245.728C288.365 246.288 288.549 246.728 288.805 247.048C289.077 247.368 289.405 247.6 289.789 247.744C290.189 247.872 290.621 247.936 291.085 247.936C291.789 247.936 292.309 247.816 292.645 247.576C292.981 247.32 293.149 247.008 293.149 246.64C293.149 246.272 292.989 245.992 292.669 245.8C292.349 245.592 291.837 245.424 291.133 245.296L290.461 245.176C289.629 245.016 288.869 244.8 288.181 244.528C287.493 244.24 286.941 243.848 286.525 243.352C286.109 242.856 285.901 242.216 285.901 241.432C285.901 240.248 286.333 239.344 287.197 238.72C288.061 238.08 289.197 237.76 290.605 237.76C291.933 237.76 293.037 238.056 293.917 238.648C294.797 239.24 295.373 240.016 295.645 240.976L292.837 241.84C292.709 241.232 292.445 240.8 292.045 240.544C291.661 240.288 291.181 240.16 290.605 240.16C290.029 240.16 289.589 240.264 289.285 240.472C288.981 240.664 288.829 240.936 288.829 241.288C288.829 241.672 288.989 241.96 289.309 242.152C289.629 242.328 290.061 242.464 290.605 242.56L291.277 242.68C292.173 242.84 292.981 243.056 293.701 243.328C294.437 243.584 295.013 243.96 295.429 244.456C295.861 244.936 296.077 245.592 296.077 246.424C296.077 247.672 295.621 248.64 294.709 249.328C293.813 250 292.605 250.336 291.085 250.336ZM305.781 250L304.101 238.096H307.101L308.157 247.96H308.589L310.125 238.096H314.973L316.509 247.96H316.941L317.997 238.096H320.997L319.317 250H314.301L312.765 240.136H312.333L310.797 250H305.781ZM327.337 250.336C326.489 250.336 325.729 250.192 325.057 249.904C324.385 249.6 323.849 249.168 323.449 248.608C323.065 248.032 322.873 247.336 322.873 246.52C322.873 245.704 323.065 245.024 323.449 244.48C323.849 243.92 324.393 243.504 325.081 243.232C325.785 242.944 326.585 242.8 327.481 242.8H330.745V242.128C330.745 241.568 330.569 241.112 330.217 240.76C329.865 240.392 329.305 240.208 328.537 240.208C327.785 240.208 327.225 240.384 326.857 240.736C326.489 241.072 326.249 241.512 326.137 242.056L323.353 241.12C323.545 240.512 323.849 239.96 324.265 239.464C324.697 238.952 325.265 238.544 325.969 238.24C326.689 237.92 327.561 237.76 328.585 237.76C330.153 237.76 331.393 238.152 332.305 238.936C333.217 239.72 333.673 240.856 333.673 242.344V246.784C333.673 247.264 333.897 247.504 334.345 247.504H335.305V250H333.289C332.697 250 332.209 249.856 331.825 249.568C331.441 249.28 331.249 248.896 331.249 248.416V248.392H330.793C330.729 248.584 330.585 248.84 330.361 249.16C330.137 249.464 329.785 249.736 329.305 249.976C328.825 250.216 328.169 250.336 327.337 250.336ZM327.865 247.888C328.713 247.888 329.401 247.656 329.929 247.192C330.473 246.712 330.745 246.08 330.745 245.296V245.056H327.697C327.137 245.056 326.697 245.176 326.377 245.416C326.057 245.656 325.897 245.992 325.897 246.424C325.897 246.856 326.065 247.208 326.401 247.48C326.737 247.752 327.225 247.888 327.865 247.888ZM341.209 250C340.425 250 339.785 249.76 339.289 249.28C338.809 248.784 338.569 248.128 338.569 247.312V240.592H335.593V238.096H338.569V234.4H341.593V238.096H344.857V240.592H341.593V246.784C341.593 247.264 341.817 247.504 342.265 247.504H344.569V250H341.209ZM352.764 250.336C351.612 250.336 350.564 250.096 349.62 249.616C348.692 249.136 347.956 248.44 347.412 247.528C346.868 246.616 346.596 245.512 346.596 244.216V243.88C346.596 242.584 346.868 241.48 347.412 240.568C347.956 239.656 348.692 238.96 349.62 238.48C350.564 238 351.612 237.76 352.764 237.76C353.9 237.76 354.876 237.96 355.692 238.36C356.508 238.76 357.164 239.312 357.66 240.016C358.172 240.704 358.508 241.488 358.668 242.368L355.74 242.992C355.676 242.512 355.532 242.08 355.308 241.696C355.084 241.312 354.764 241.008 354.348 240.784C353.948 240.56 353.444 240.448 352.836 240.448C352.228 240.448 351.676 240.584 351.18 240.856C350.7 241.112 350.316 241.504 350.028 242.032C349.756 242.544 349.62 243.176 349.62 243.928V244.168C349.62 244.92 349.756 245.56 350.028 246.088C350.316 246.6 350.7 246.992 351.18 247.264C351.676 247.52 352.228 247.648 352.836 247.648C353.748 247.648 354.436 247.416 354.9 246.952C355.38 246.472 355.684 245.848 355.812 245.08L358.74 245.776C358.532 246.624 358.172 247.4 357.66 248.104C357.164 248.792 356.508 249.336 355.692 249.736C354.876 250.136 353.9 250.336 352.764 250.336ZM361.235 250V233.2H364.259V239.56H364.691C364.819 239.304 365.019 239.048 365.291 238.792C365.563 238.536 365.923 238.328 366.371 238.168C366.835 237.992 367.419 237.904 368.123 237.904C369.051 237.904 369.859 238.12 370.547 238.552C371.251 238.968 371.795 239.552 372.179 240.304C372.563 241.04 372.755 241.904 372.755 242.896V250H369.731V243.136C369.731 242.24 369.507 241.568 369.059 241.12C368.627 240.672 368.003 240.448 367.187 240.448C366.259 240.448 365.539 240.76 365.027 241.384C364.515 241.992 364.259 242.848 364.259 243.952V250H361.235ZM376.024 250V238.096H379.048V250H376.024ZM377.536 236.704C376.992 236.704 376.528 236.528 376.144 236.176C375.776 235.824 375.592 235.36 375.592 234.784C375.592 234.208 375.776 233.744 376.144 233.392C376.528 233.04 376.992 232.864 377.536 232.864C378.096 232.864 378.56 233.04 378.928 233.392C379.296 233.744 379.48 234.208 379.48 234.784C379.48 235.36 379.296 235.824 378.928 236.176C378.56 236.528 378.096 236.704 377.536 236.704ZM382.399 250V238.096H385.375V239.656H385.807C385.999 239.24 386.359 238.848 386.887 238.48C387.415 238.096 388.215 237.904 389.287 237.904C390.215 237.904 391.023 238.12 391.711 238.552C392.415 238.968 392.959 239.552 393.343 240.304C393.727 241.04 393.919 241.904 393.919 242.896V250H390.895V243.136C390.895 242.24 390.671 241.568 390.223 241.12C389.791 240.672 389.167 240.448 388.351 240.448C387.423 240.448 386.703 240.76 386.191 241.384C385.679 241.992 385.423 242.848 385.423 243.952V250H382.399ZM396.612 244.096V243.712C396.612 242.464 396.86 241.4 397.356 240.52C397.852 239.624 398.508 238.944 399.324 238.48C400.156 238 401.06 237.76 402.036 237.76C403.124 237.76 403.948 237.952 404.508 238.336C405.068 238.72 405.476 239.12 405.732 239.536H406.164V238.096H409.14V252.112C409.14 252.928 408.9 253.576 408.42 254.056C407.94 254.552 407.3 254.8 406.5 254.8H398.532V252.16H405.444C405.892 252.16 406.116 251.92 406.116 251.44V248.344H405.684C405.524 248.6 405.3 248.864 405.012 249.136C404.724 249.392 404.34 249.608 403.86 249.784C403.38 249.96 402.772 250.048 402.036 250.048C401.06 250.048 400.156 249.816 399.324 249.352C398.508 248.872 397.852 248.192 397.356 247.312C396.86 246.416 396.612 245.344 396.612 244.096ZM402.9 247.408C403.828 247.408 404.604 247.112 405.228 246.52C405.852 245.928 406.164 245.096 406.164 244.024V243.784C406.164 242.696 405.852 241.864 405.228 241.288C404.62 240.696 403.844 240.4 402.9 240.4C401.972 240.4 401.196 240.696 400.572 241.288C399.948 241.864 399.636 242.696 399.636 243.784V244.024C399.636 245.096 399.948 245.928 400.572 246.52C401.196 247.112 401.972 247.408 402.9 247.408Z" fill="#BB3636"/>
<path d="M610.258 250V247.984C610.258 246.816 610.45 245.848 610.834 245.08C611.218 244.296 611.77 243.656 612.49 243.16C613.226 242.648 614.122 242.232 615.178 241.912L616.786 241.408C617.378 241.216 617.874 240.984 618.274 240.712C618.674 240.424 618.978 240.08 619.186 239.68C619.41 239.28 619.522 238.824 619.522 238.312V238.216C619.522 237.416 619.25 236.784 618.706 236.32C618.162 235.84 617.418 235.6 616.474 235.6C615.546 235.6 614.794 235.856 614.218 236.368C613.658 236.864 613.378 237.584 613.378 238.528V238.96H610.306V238.576C610.306 237.36 610.578 236.328 611.122 235.48C611.666 234.632 612.402 233.984 613.33 233.536C614.274 233.088 615.322 232.864 616.474 232.864C617.626 232.864 618.666 233.088 619.594 233.536C620.522 233.968 621.25 234.584 621.778 235.384C622.322 236.168 622.594 237.096 622.594 238.168V238.408C622.594 239.48 622.37 240.392 621.922 241.144C621.49 241.88 620.898 242.488 620.146 242.968C619.394 243.432 618.538 243.816 617.578 244.12L616.042 244.6C615.354 244.808 614.818 245.04 614.434 245.296C614.05 245.536 613.778 245.808 613.618 246.112C613.474 246.4 613.402 246.752 613.402 247.168V247.264H622.45V250H610.258ZM625.18 250V238.096H628.156V239.392H628.588C628.796 238.992 629.14 238.648 629.62 238.36C630.1 238.056 630.732 237.904 631.516 237.904C632.364 237.904 633.044 238.072 633.556 238.408C634.068 238.728 634.46 239.152 634.732 239.68H635.164C635.436 239.168 635.82 238.744 636.316 238.408C636.812 238.072 637.516 237.904 638.428 237.904C639.164 237.904 639.828 238.064 640.42 238.384C641.028 238.688 641.508 239.16 641.86 239.8C642.228 240.424 642.412 241.216 642.412 242.176V250H639.388V242.392C639.388 241.736 639.22 241.248 638.884 240.928C638.548 240.592 638.076 240.424 637.468 240.424C636.78 240.424 636.244 240.648 635.86 241.096C635.492 241.528 635.308 242.152 635.308 242.968V250H632.284V242.392C632.284 241.736 632.116 241.248 631.78 240.928C631.444 240.592 630.972 240.424 630.364 240.424C629.676 240.424 629.14 240.648 628.756 241.096C628.388 241.528 628.204 242.152 628.204 242.968V250H625.18ZM645.664 250V238.096H648.688V250H645.664ZM647.176 236.704C646.632 236.704 646.168 236.528 645.784 236.176C645.416 235.824 645.232 235.36 645.232 234.784C645.232 234.208 645.416 233.744 645.784 233.392C646.168 233.04 646.632 232.864 647.176 232.864C647.736 232.864 648.2 233.04 648.568 233.392C648.936 233.744 649.12 234.208 649.12 234.784C649.12 235.36 648.936 235.824 648.568 236.176C648.2 236.528 647.736 236.704 647.176 236.704ZM652.039 250V238.096H655.015V239.656H655.447C655.639 239.24 655.999 238.848 656.527 238.48C657.055 238.096 657.855 237.904 658.927 237.904C659.855 237.904 660.663 238.12 661.351 238.552C662.055 238.968 662.599 239.552 662.983 240.304C663.367 241.04 663.559 241.904 663.559 242.896V250H660.535V243.136C660.535 242.24 660.311 241.568 659.863 241.12C659.431 240.672 658.807 240.448 657.991 240.448C657.063 240.448 656.343 240.76 655.831 241.384C655.319 241.992 655.063 242.848 655.063 243.952V250H652.039ZM672.922 250V238.096H675.898V239.44H676.33C676.506 238.96 676.794 238.608 677.194 238.384C677.61 238.16 678.09 238.048 678.634 238.048H680.074V240.736H678.586C677.818 240.736 677.186 240.944 676.69 241.36C676.194 241.76 675.946 242.384 675.946 243.232V250H672.922ZM687.44 250.336C686.256 250.336 685.208 250.088 684.296 249.592C683.4 249.08 682.696 248.368 682.184 247.456C681.688 246.528 681.44 245.44 681.44 244.192V243.904C681.44 242.656 681.688 241.576 682.184 240.664C682.68 239.736 683.376 239.024 684.272 238.528C685.168 238.016 686.208 237.76 687.392 237.76C688.56 237.76 689.576 238.024 690.44 238.552C691.304 239.064 691.976 239.784 692.456 240.712C692.936 241.624 693.176 242.688 693.176 243.904V244.936H684.512C684.544 245.752 684.848 246.416 685.424 246.928C686 247.44 686.704 247.696 687.536 247.696C688.384 247.696 689.008 247.512 689.408 247.144C689.808 246.776 690.112 246.368 690.32 245.92L692.792 247.216C692.568 247.632 692.24 248.088 691.808 248.584C691.392 249.064 690.832 249.48 690.128 249.832C689.424 250.168 688.528 250.336 687.44 250.336ZM684.536 242.68H690.104C690.04 241.992 689.76 241.44 689.264 241.024C688.784 240.608 688.152 240.4 687.368 240.4C686.552 240.4 685.904 240.608 685.424 241.024C684.944 241.44 684.648 241.992 684.536 242.68ZM699.564 250.336C698.716 250.336 697.956 250.192 697.284 249.904C696.612 249.6 696.076 249.168 695.676 248.608C695.292 248.032 695.1 247.336 695.1 246.52C695.1 245.704 695.292 245.024 695.676 244.48C696.076 243.92 696.62 243.504 697.308 243.232C698.012 242.944 698.812 242.8 699.708 242.8H702.972V242.128C702.972 241.568 702.796 241.112 702.444 240.76C702.092 240.392 701.532 240.208 700.764 240.208C700.012 240.208 699.452 240.384 699.084 240.736C698.716 241.072 698.476 241.512 698.364 242.056L695.58 241.12C695.772 240.512 696.076 239.96 696.492 239.464C696.924 238.952 697.492 238.544 698.196 238.24C698.916 237.92 699.788 237.76 700.812 237.76C702.38 237.76 703.62 238.152 704.532 238.936C705.444 239.72 705.9 240.856 705.9 242.344V246.784C705.9 247.264 706.124 247.504 706.572 247.504H707.532V250H705.516C704.924 250 704.436 249.856 704.052 249.568C703.668 249.28 703.476 248.896 703.476 248.416V248.392H703.02C702.956 248.584 702.812 248.84 702.588 249.16C702.364 249.464 702.012 249.736 701.532 249.976C701.052 250.216 700.396 250.336 699.564 250.336ZM700.092 247.888C700.94 247.888 701.628 247.656 702.156 247.192C702.7 246.712 702.972 246.08 702.972 245.296V245.056H699.924C699.364 245.056 698.924 245.176 698.604 245.416C698.284 245.656 698.124 245.992 698.124 246.424C698.124 246.856 698.292 247.208 698.628 247.48C698.964 247.752 699.452 247.888 700.092 247.888ZM714.308 250.336C713.364 250.336 712.476 250.104 711.644 249.64C710.828 249.16 710.172 248.464 709.676 247.552C709.18 246.64 708.932 245.536 708.932 244.24V243.856C708.932 242.56 709.18 241.456 709.676 240.544C710.172 239.632 710.828 238.944 711.644 238.48C712.46 238 713.348 237.76 714.308 237.76C715.028 237.76 715.628 237.848 716.108 238.024C716.604 238.184 717.004 238.392 717.308 238.648C717.612 238.904 717.844 239.176 718.004 239.464H718.436V233.2H721.46V250H718.484V248.56H718.052C717.78 249.008 717.356 249.416 716.78 249.784C716.22 250.152 715.396 250.336 714.308 250.336ZM715.22 247.696C716.148 247.696 716.924 247.4 717.548 246.808C718.172 246.2 718.484 245.32 718.484 244.168V243.928C718.484 242.776 718.172 241.904 717.548 241.312C716.94 240.704 716.164 240.4 715.22 240.4C714.292 240.4 713.516 240.704 712.892 241.312C712.268 241.904 711.956 242.776 711.956 243.928V244.168C711.956 245.32 712.268 246.2 712.892 246.808C713.516 247.4 714.292 247.696 715.22 247.696ZM724.813 250V238.096H727.837V250H724.813ZM726.325 236.704C725.781 236.704 725.317 236.528 724.933 236.176C724.565 235.824 724.381 235.36 724.381 234.784C724.381 234.208 724.565 233.744 724.933 233.392C725.317 233.04 725.781 232.864 726.325 232.864C726.885 232.864 727.349 233.04 727.717 233.392C728.085 233.744 728.269 234.208 728.269 234.784C728.269 235.36 728.085 235.824 727.717 236.176C727.349 236.528 726.885 236.704 726.325 236.704ZM731.188 250V238.096H734.164V239.656H734.596C734.788 239.24 735.148 238.848 735.676 238.48C736.204 238.096 737.004 237.904 738.076 237.904C739.004 237.904 739.812 238.12 740.5 238.552C741.204 238.968 741.748 239.552 742.132 240.304C742.516 241.04 742.708 241.904 742.708 242.896V250H739.684V243.136C739.684 242.24 739.46 241.568 739.012 241.12C738.58 240.672 737.956 240.448 737.14 240.448C736.212 240.448 735.492 240.76 734.98 241.384C734.468 241.992 734.212 242.848 734.212 243.952V250H731.188ZM745.401 244.096V243.712C745.401 242.464 745.649 241.4 746.145 240.52C746.641 239.624 747.297 238.944 748.113 238.48C748.945 238 749.849 237.76 750.825 237.76C751.913 237.76 752.737 237.952 753.297 238.336C753.857 238.72 754.265 239.12 754.521 239.536H754.953V238.096H757.929V252.112C757.929 252.928 757.689 253.576 757.209 254.056C756.729 254.552 756.089 254.8 755.289 254.8H747.321V252.16H754.233C754.681 252.16 754.905 251.92 754.905 251.44V248.344H754.473C754.313 248.6 754.089 248.864 753.801 249.136C753.513 249.392 753.129 249.608 752.649 249.784C752.169 249.96 751.561 250.048 750.825 250.048C749.849 250.048 748.945 249.816 748.113 249.352C747.297 248.872 746.641 248.192 746.145 247.312C745.649 246.416 745.401 245.344 745.401 244.096ZM751.689 247.408C752.617 247.408 753.393 247.112 754.017 246.52C754.641 245.928 754.953 245.096 754.953 244.024V243.784C754.953 242.696 754.641 241.864 754.017 241.288C753.409 240.696 752.633 240.4 751.689 240.4C750.761 240.4 749.985 240.696 749.361 241.288C748.737 241.864 748.425 242.696 748.425 243.784V244.024C748.425 245.096 748.737 245.928 749.361 246.52C749.985 247.112 750.761 247.408 751.689 247.408ZM761.642 244.48V233.2H764.714V244.48H761.642ZM763.178 250.336C762.538 250.336 761.994 250.128 761.546 249.712C761.114 249.28 760.898 248.728 760.898 248.056C760.898 247.384 761.114 246.84 761.546 246.424C761.994 245.992 762.538 245.776 763.178 245.776C763.834 245.776 764.378 245.992 764.81 246.424C765.242 246.84 765.458 247.384 765.458 248.056C765.458 248.728 765.242 249.28 764.81 249.712C764.378 250.128 763.834 250.336 763.178 250.336Z" fill="#0CA512"/>
<path d="M156.323 88.7585L59.7305 114.64L61.3481 120.677L157.941 94.7955L156.323 88.7585Z" fill="#4BD6C5"/>
<path d="M157.94 94.7953L61.3477 120.677L62.9653 126.714L159.558 100.832L157.94 94.7953Z" fill="#4BD6C5"/>
<path d="M159.559 100.832L62.9668 126.714L64.5844 132.751L161.177 106.869L159.559 100.832Z" fill="#4BD6C5"/>
<path d="M161.177 106.87L64.584 132.751L66.2016 138.789L162.794 112.907L161.177 106.87Z" fill="#4BD6C5"/>
<path d="M162.794 112.907L66.2012 138.789L67.8188 144.826L164.411 118.944L162.794 112.907Z" fill="#4BD6C5"/>
<path d="M164.411 118.944L67.8184 144.825L69.436 150.862L166.029 124.981L164.411 118.944Z" fill="#4BD6C5"/>
<path d="M166.03 124.981L69.4375 150.863L71.0551 156.9L167.648 131.018L166.03 124.981Z" fill="#4BD6C5"/>
<path d="M167.647 131.018L71.0547 156.9L72.6723 162.937L169.265 137.055L167.647 131.018Z" fill="#4BD6C5"/>
<path d="M169.264 137.055L72.6719 162.937L74.2895 168.974L170.882 143.092L169.264 137.055Z" fill="#4BD6C5"/>
<path d="M170.882 143.092L74.2891 168.974L75.9067 175.011L172.499 149.129L170.882 143.092Z" fill="#4BD6C5"/>
<path d="M87.9803 171.776L75.9062 175.011L77.5239 181.048L89.5979 177.813L87.9803 171.776Z" fill="#4BD6C5"/>
<path d="M100.055 168.54L87.9805 171.775L89.5981 177.812L101.672 174.577L100.055 168.54Z" fill="#4BD6C5"/>
<path d="M112.129 165.305L100.055 168.54L101.672 174.577L113.746 171.342L112.129 165.305Z" fill="#4BD6C5"/>
<path d="M124.203 162.07L112.129 165.305L113.747 171.342L125.821 168.107L124.203 162.07Z" fill="#4BD6C5"/>
<path d="M130.24 160.452L124.203 162.07L125.821 168.107L131.858 166.489L130.24 160.452Z" fill="#4BD6C5"/>
<path d="M136.277 158.835L130.24 160.452L131.858 166.489L137.895 164.872L136.277 158.835Z" fill="#4BD6C5"/>
<path d="M142.314 157.217L136.277 158.834L137.895 164.872L143.932 163.254L142.314 157.217Z" fill="#4BD6C5"/>
<path d="M154.389 153.982L142.314 157.217L143.932 163.254L156.006 160.019L154.389 153.982Z" fill="#4BD6C5"/>
<path d="M160.426 152.364L154.389 153.982L156.006 160.019L162.043 158.401L160.426 152.364Z" fill="#4BD6C5"/>
<path d="M172.5 149.129L160.426 152.364L162.043 158.401L174.117 155.166L172.5 149.129Z" fill="#4BD6C5"/>
<path d="M89.5995 177.812L77.5254 181.048L79.143 187.085L91.2171 183.849L89.5995 177.812Z" fill="#4BD6C5"/>
<path d="M101.674 174.577L89.5996 177.812L91.2172 183.85L103.291 180.614L101.674 174.577Z" fill="#4BD6C5"/>
<path d="M113.748 171.342L101.674 174.577L103.291 180.614L115.366 177.379L113.748 171.342Z" fill="#4BD6C5"/>
<path d="M156.005 160.019L113.746 171.342L115.364 177.379L157.623 166.056L156.005 160.019Z" fill="#4BD6C5"/>
<path d="M162.043 158.401L156.006 160.019L157.623 166.056L163.661 164.438L162.043 158.401Z" fill="#4BD6C5"/>
<path d="M174.117 155.166L162.043 158.401L163.661 164.438L175.735 161.203L174.117 155.166Z" fill="#4BD6C5"/>
<path d="M91.2167 183.849L79.1426 187.085L80.7602 193.122L92.8343 189.887L91.2167 183.849Z" fill="#4BD6C5"/>
<path d="M103.291 180.614L91.2168 183.85L92.8344 189.887L104.908 186.651L103.291 180.614Z" fill="#4BD6C5"/>
<path d="M115.365 177.379L103.291 180.614L104.909 186.651L116.983 183.416L115.365 177.379Z" fill="#4BD6C5"/>
<path d="M127.439 174.144L115.365 177.379L116.983 183.416L129.057 180.181L127.439 174.144Z" fill="#4BD6C5"/>
<path d="M139.514 170.909L127.439 174.144L129.057 180.181L141.131 176.946L139.514 170.909Z" fill="#4BD6C5"/>
<path d="M151.588 167.673L139.514 170.909L141.131 176.946L153.205 173.71L151.588 167.673Z" fill="#4BD6C5"/>
<path d="M163.66 164.438L151.586 167.673L153.204 173.71L165.278 170.475L163.66 164.438Z" fill="#4BD6C5"/>
<path d="M175.734 161.203L163.66 164.438L165.278 170.475L177.352 167.24L175.734 161.203Z" fill="#4BD6C5"/>
<path d="M92.8338 189.887L80.7598 193.122L82.3774 199.159L94.4515 195.924L92.8338 189.887Z" fill="#4BD6C5"/>
<path d="M104.908 186.651L92.834 189.886L94.4516 195.924L106.526 192.688L104.908 186.651Z" fill="#4BD6C5"/>
<path d="M116.982 183.416L104.908 186.651L106.526 192.688L118.6 189.453L116.982 183.416Z" fill="#4BD6C5"/>
<path d="M129.056 180.181L116.982 183.416L118.6 189.453L130.674 186.218L129.056 180.181Z" fill="#4BD6C5"/>
<path d="M141.131 176.946L129.057 180.181L130.674 186.218L142.748 182.983L141.131 176.946Z" fill="#4BD6C5"/>
<path d="M153.205 173.71L141.131 176.946L142.748 182.983L154.823 179.747L153.205 173.71Z" fill="#4BD6C5"/>
<path d="M165.279 170.475L153.205 173.71L154.823 179.747L166.897 176.512L165.279 170.475Z" fill="#4BD6C5"/>
<path d="M177.353 167.24L165.279 170.475L166.897 176.512L178.971 173.277L177.353 167.24Z" fill="#4BD6C5"/>
<path d="M172.933 174.895L88.4141 197.541L90.0317 203.578L174.55 180.932L172.933 174.895Z" fill="#4BD6C5"/>
<path d="M118.383 176.57L112.346 178.188L113.963 184.225L120 182.607L118.383 176.57Z" fill="black"/>
<path d="M113.963 184.225L107.926 185.843L109.543 191.88L115.58 190.262L113.963 184.225Z" fill="black"/>
<path d="M122.803 168.916L116.766 170.533L118.383 176.57L124.42 174.953L122.803 168.916Z" fill="black"/>
<path d="M128.84 167.298L122.803 168.916L124.42 174.953L130.457 173.335L128.84 167.298Z" fill="black"/>
<path d="M134.877 165.68L128.84 167.298L130.457 173.335L136.494 171.717L134.877 165.68Z" fill="black"/>
<path d="M140.914 164.063L134.877 165.68L136.495 171.717L142.532 170.1L140.914 164.063Z" fill="black"/>
<path d="M148.568 168.482L142.531 170.1L144.149 176.137L150.186 174.519L148.568 168.482Z" fill="black"/>
<path d="M156.223 172.902L150.186 174.519L151.803 180.556L157.84 178.939L156.223 172.902Z" fill="black"/>
<path d="M114.498 125.848L78.2754 135.553L79.893 141.59L116.115 131.885L114.498 125.848Z" fill="#9F4DDF"/>
<path d="M156.757 114.524L120.535 124.23L122.153 130.267L158.375 120.561L156.757 114.524Z" fill="#9F4DDF"/>
<path d="M85.9296 139.973L79.8926 141.59L81.5102 147.627L87.5472 146.01L85.9296 139.973Z" fill="#9F4DDF"/>
<path d="M98.0038 136.737L85.9297 139.973L87.5473 146.01L99.6214 142.774L98.0038 136.737Z" fill="white"/>
<path d="M110.078 133.502L98.0039 136.737L99.6215 142.774L111.696 139.539L110.078 133.502Z" fill="black"/>
<path d="M116.115 131.885L110.078 133.502L111.696 139.539L117.733 137.922L116.115 131.885Z" fill="#9F4DDF"/>
<path d="M128.189 128.649L122.152 130.267L123.77 136.304L129.807 134.686L128.189 128.649Z" fill="#9F4DDF"/>
<path d="M140.264 125.414L128.189 128.649L129.807 134.686L141.881 131.451L140.264 125.414Z" fill="white"/>
<path d="M152.338 122.179L140.264 125.414L141.881 131.451L153.955 128.216L152.338 122.179Z" fill="black"/>
<path d="M158.375 120.561L152.338 122.179L153.956 128.216L159.993 126.598L158.375 120.561Z" fill="#9F4DDF"/>
<path d="M87.5485 146.01L63.4004 152.48L65.018 158.517L89.1662 152.047L87.5485 146.01Z" fill="#9F4DDF"/>
<path d="M99.6209 142.775L87.5469 146.01L89.1645 152.047L101.239 148.812L99.6209 142.775Z" fill="white"/>
<path d="M111.695 139.539L99.6211 142.774L101.239 148.811L113.313 145.576L111.695 139.539Z" fill="black"/>
<path d="M129.806 134.686L111.695 139.539L113.313 145.576L131.424 140.723L129.806 134.686Z" fill="#9F4DDF"/>
<path d="M141.881 131.451L129.807 134.686L131.424 140.723L143.498 137.488L141.881 131.451Z" fill="white"/>
<path d="M153.955 128.216L141.881 131.451L143.498 137.488L155.573 134.253L153.955 128.216Z" fill="black"/>
<path d="M159.992 126.598L153.955 128.216L155.573 134.253L161.61 132.635L159.992 126.598Z" fill="#9F4DDF"/>
<path d="M89.1657 152.047L65.0176 158.517L66.6352 164.554L90.7833 158.084L89.1657 152.047Z" fill="#9F4DDF"/>
<path d="M101.24 148.811L89.166 152.047L90.7836 158.084L102.858 154.848L101.24 148.811Z" fill="white"/>
<path d="M113.314 145.576L101.24 148.812L102.858 154.849L114.932 151.613L113.314 145.576Z" fill="black"/>
<path d="M131.426 140.723L113.314 145.576L114.932 151.613L133.043 146.76L131.426 140.723Z" fill="#9F4DDF"/>
<path d="M143.498 137.488L131.424 140.723L133.041 146.76L145.116 143.525L143.498 137.488Z" fill="white"/>
<path d="M155.572 134.253L143.498 137.488L145.116 143.525L157.19 140.29L155.572 134.253Z" fill="black"/>
<path d="M161.609 132.635L155.572 134.253L157.19 140.29L163.227 138.672L161.609 132.635Z" fill="#9F4DDF"/>
<path d="M72.6718 162.937L66.6348 164.554L68.2524 170.591L74.2894 168.974L72.6718 162.937Z" fill="#9F4DDF"/>
<path d="M90.7831 158.084L84.7461 159.701L86.3637 165.738L92.4007 164.121L90.7831 158.084Z" fill="#9F4DDF"/>
<path d="M102.857 154.849L90.7832 158.084L92.4008 164.121L104.475 160.886L102.857 154.849Z" fill="white"/>
<path d="M114.931 151.613L102.857 154.849L104.475 160.886L116.549 157.65L114.931 151.613Z" fill="black"/>
<path d="M120.969 149.996L114.932 151.613L116.549 157.65L122.586 156.033L120.969 149.996Z" fill="#9F4DDF"/>
<path d="M133.043 146.76L127.006 148.378L128.623 154.415L134.661 152.797L133.043 146.76Z" fill="#9F4DDF"/>
<path d="M145.117 143.525L133.043 146.76L134.661 152.798L146.735 149.562L145.117 143.525Z" fill="white"/>
<path d="M157.191 140.29L145.117 143.525L146.735 149.562L158.809 146.327L157.191 140.29Z" fill="black"/>
<path d="M163.226 138.672L157.189 140.29L158.807 146.327L164.844 144.709L163.226 138.672Z" fill="#9F4DDF"/>
<path d="M122.585 156.033L86.3633 165.739L87.9809 171.776L124.203 162.07L122.585 156.033Z" fill="#9F4DDF"/>
<path d="M164.845 144.709L128.623 154.415L130.241 160.452L166.463 150.746L164.845 144.709Z" fill="#9F4DDF"/>
<path d="M865.394 82.759L961.986 108.641L960.369 114.678L863.776 88.796L865.394 82.759Z" fill="#EEDC3B"/>
<path d="M863.777 88.7958L960.369 114.678L958.752 120.715L862.159 94.8329L863.777 88.7958Z" fill="#EEDC3B"/>
<path d="M862.157 94.8327L958.75 120.715L957.132 126.752L860.54 100.87L862.157 94.8327Z" fill="#EEDC3B"/>
<path d="M860.542 100.871L957.135 126.752L955.517 132.789L858.925 106.908L860.542 100.871Z" fill="#EEDC3B"/>
<path d="M858.923 106.907L955.516 132.789L953.898 138.826L857.305 112.944L858.923 106.907Z" fill="#EEDC3B"/>
<path d="M857.306 112.944L953.898 138.826L952.281 144.863L855.688 118.981L857.306 112.944Z" fill="#EEDC3B"/>
<path d="M855.687 118.981L952.279 144.863L950.662 150.9L854.069 125.018L855.687 118.981Z" fill="#EEDC3B"/>
<path d="M854.07 125.018L950.662 150.9L949.044 156.937L852.452 131.055L854.07 125.018Z" fill="#EEDC3B"/>
<path d="M852.452 131.056L949.045 156.938L947.427 162.975L850.835 137.093L852.452 131.056Z" fill="#EEDC3B"/>
<path d="M850.835 137.092L947.428 162.974L945.81 169.011L849.218 143.129L850.835 137.092Z" fill="#EEDC3B"/>
<path d="M933.736 165.776L945.811 169.011L944.193 175.048L932.119 171.813L933.736 165.776Z" fill="#EEDC3B"/>
<path d="M921.66 162.541L933.734 165.776L932.117 171.813L920.043 168.578L921.66 162.541Z" fill="#EEDC3B"/>
<path d="M909.588 159.305L921.662 162.541L920.044 168.578L907.97 165.342L909.588 159.305Z" fill="#EEDC3B"/>
<path d="M897.514 156.07L909.588 159.305L907.97 165.342L895.896 162.107L897.514 156.07Z" fill="#EEDC3B"/>
<path d="M891.477 154.452L897.514 156.07L895.896 162.107L889.859 160.489L891.477 154.452Z" fill="#EEDC3B"/>
<path d="M885.44 152.835L891.477 154.452L889.859 160.489L883.822 158.872L885.44 152.835Z" fill="#EEDC3B"/>
<path d="M879.402 151.217L885.439 152.835L883.822 158.872L877.785 157.254L879.402 151.217Z" fill="#EEDC3B"/>
<path d="M867.328 147.982L879.402 151.217L877.785 157.254L865.711 154.019L867.328 147.982Z" fill="#EEDC3B"/>
<path d="M861.291 146.365L867.328 147.983L865.711 154.02L859.673 152.402L861.291 146.365Z" fill="#EEDC3B"/>
<path d="M849.217 143.13L861.291 146.365L859.673 152.402L847.599 149.167L849.217 143.13Z" fill="#EEDC3B"/>
<path d="M932.117 171.813L944.191 175.048L942.574 181.085L930.5 177.85L932.117 171.813Z" fill="#EEDC3B"/>
<path d="M920.043 168.577L932.117 171.812L930.5 177.85L918.425 174.614L920.043 168.577Z" fill="#EEDC3B"/>
<path d="M907.969 165.342L920.043 168.577L918.425 174.614L906.351 171.379L907.969 165.342Z" fill="#EEDC3B"/>
<path d="M865.711 154.02L907.971 165.343L906.353 171.38L864.094 160.057L865.711 154.02Z" fill="#EEDC3B"/>
<path d="M859.674 152.402L865.711 154.02L864.093 160.057L858.056 158.439L859.674 152.402Z" fill="#EEDC3B"/>
<path d="M847.6 149.166L859.674 152.402L858.056 158.439L845.982 155.203L847.6 149.166Z" fill="#EEDC3B"/>
<path d="M930.5 177.849L942.574 181.085L940.957 187.122L928.883 183.887L930.5 177.849Z" fill="#EEDC3B"/>
<path d="M918.428 174.615L930.502 177.85L928.884 183.887L916.81 180.652L918.428 174.615Z" fill="#EEDC3B"/>
<path d="M906.354 171.38L918.428 174.615L916.81 180.652L904.736 177.417L906.354 171.38Z" fill="#EEDC3B"/>
<path d="M894.279 168.145L906.354 171.38L904.736 177.417L892.662 174.182L894.279 168.145Z" fill="#EEDC3B"/>
<path d="M882.205 164.909L894.279 168.145L892.662 174.182L880.588 170.946L882.205 164.909Z" fill="#EEDC3B"/>
<path d="M870.131 161.674L882.205 164.909L880.587 170.946L868.513 167.711L870.131 161.674Z" fill="#EEDC3B"/>
<path d="M858.057 158.439L870.131 161.674L868.513 167.711L856.439 164.476L858.057 158.439Z" fill="#EEDC3B"/>
<path d="M845.983 155.203L858.057 158.438L856.439 164.476L844.365 161.24L845.983 155.203Z" fill="#EEDC3B"/>
<path d="M928.883 183.887L940.957 187.123L939.339 193.16L927.265 189.924L928.883 183.887Z" fill="#EEDC3B"/>
<path d="M916.809 180.652L928.883 183.887L927.265 189.924L915.191 186.689L916.809 180.652Z" fill="#EEDC3B"/>
<path d="M904.735 177.417L916.809 180.652L915.191 186.689L903.117 183.454L904.735 177.417Z" fill="#EEDC3B"/>
<path d="M892.66 174.181L904.734 177.417L903.117 183.454L891.043 180.218L892.66 174.181Z" fill="#EEDC3B"/>
<path d="M880.586 170.946L892.66 174.181L891.043 180.218L878.968 176.983L880.586 170.946Z" fill="#EEDC3B"/>
<path d="M868.512 167.711L880.586 170.946L878.968 176.983L866.894 173.748L868.512 167.711Z" fill="#EEDC3B"/>
<path d="M856.438 164.475L868.512 167.711L866.894 173.748L854.82 170.512L856.438 164.475Z" fill="#EEDC3B"/>
<path d="M844.363 161.24L856.438 164.475L854.82 170.512L842.746 167.277L844.363 161.24Z" fill="#EEDC3B"/>
<path d="M848.784 168.895L933.303 191.542L931.685 197.579L847.167 174.932L848.784 168.895Z" fill="#EEDC3B"/>
<path d="M875.951 176.174L869.914 174.557L871.532 168.52L877.569 170.137L875.951 176.174Z" fill="black"/>
<path d="M869.914 174.557L863.877 172.939L865.495 166.902L871.532 168.52L869.914 174.557Z" fill="black"/>
<path d="M861.076 159.248L855.039 157.63L856.657 151.593L862.694 153.21L861.076 159.248Z" fill="black"/>
<path d="M862.691 153.21L856.654 151.592L858.272 145.555L864.309 147.173L862.691 153.21Z" fill="black"/>
<path d="M865.494 166.902L859.457 165.284L861.075 159.247L867.112 160.865L865.494 166.902Z" fill="black"/>
<path d="M881.988 177.792L875.951 176.174L877.569 170.137L883.606 171.755L881.988 177.792Z" fill="black"/>
<path d="M888.025 179.409L881.988 177.792L883.606 171.755L889.643 173.372L888.025 179.409Z" fill="black"/>
<path d="M894.062 181.027L888.025 179.41L889.643 173.373L895.68 174.99L894.062 181.027Z" fill="black"/>
<path d="M900.1 182.645L894.062 181.027L895.68 174.99L901.717 176.608L900.1 182.645Z" fill="black"/>
<path d="M906.137 184.262L900.1 182.645L901.717 176.608L907.754 178.225L906.137 184.262Z" fill="black"/>
<path d="M912.174 185.88L906.137 184.263L907.754 178.226L913.791 179.843L912.174 185.88Z" fill="black"/>
<path d="M918.211 187.498L912.174 185.88L913.791 179.843L919.828 181.461L918.211 187.498Z" fill="black"/>
<path d="M925.865 183.078L919.828 181.46L921.446 175.423L927.483 177.041L925.865 183.078Z" fill="black"/>
<path d="M933.519 178.659L927.482 177.041L929.1 171.004L935.137 172.622L933.519 178.659Z" fill="black"/>
<path d="M935.137 172.622L929.1 171.004L930.717 164.967L936.754 166.585L935.137 172.622Z" fill="black"/>
<path d="M923.063 169.387L929.1 171.004L930.717 164.967L924.68 163.349L923.063 169.387Z" fill="black"/>
<path d="M868.729 154.828L923.062 169.386L924.68 163.349L870.347 148.791L868.729 154.828Z" fill="black"/>
<path d="M865.495 166.901L919.828 181.46L921.446 175.423L867.112 160.864L865.495 166.901Z" fill="white"/>
<path d="M861.075 159.247L927.482 177.041L929.1 171.004L862.693 153.21L861.075 159.247Z" fill="white"/>
<path d="M862.691 153.21L868.729 154.828L870.346 148.791L864.309 147.173L862.691 153.21Z" fill="black"/>
<path d="M907.219 119.848L943.441 129.554L941.824 135.591L905.602 125.885L907.219 119.848Z" fill="#FF507F"/>
<path d="M864.959 108.525L901.182 118.23L899.564 124.268L863.342 114.562L864.959 108.525Z" fill="#FF507F"/>
<path d="M935.787 133.973L941.824 135.591L940.207 141.628L934.17 140.01L935.787 133.973Z" fill="#FF507F"/>
<path d="M923.713 130.738L935.787 133.973L934.169 140.01L922.095 136.775L923.713 130.738Z" fill="white"/>
<path d="M911.639 127.503L923.713 130.738L922.095 136.775L910.021 133.54L911.639 127.503Z" fill="black"/>
<path d="M905.602 125.885L911.639 127.502L910.021 133.539L903.984 131.922L905.602 125.885Z" fill="#FF507F"/>
<path d="M893.527 122.649L899.564 124.267L897.947 130.304L891.91 128.687L893.527 122.649Z" fill="#FF507F"/>
<path d="M881.453 119.414L893.527 122.649L891.91 128.686L879.836 125.451L881.453 119.414Z" fill="white"/>
<path d="M869.379 116.179L881.453 119.414L879.836 125.451L867.761 122.216L869.379 116.179Z" fill="black"/>
<path d="M863.342 114.561L869.379 116.179L867.761 122.216L861.724 120.598L863.342 114.561Z" fill="#FF507F"/>
<path d="M934.168 140.01L958.316 146.481L956.699 152.518L932.551 146.047L934.168 140.01Z" fill="#FF507F"/>
<path d="M922.094 136.775L934.168 140.01L932.55 146.047L920.476 142.812L922.094 136.775Z" fill="white"/>
<path d="M910.02 133.539L922.094 136.775L920.476 142.812L908.402 139.576L910.02 133.539Z" fill="black"/>
<path d="M891.908 128.686L910.02 133.539L908.402 139.576L890.291 134.723L891.908 128.686Z" fill="#FF507F"/>
<path d="M879.836 125.452L891.91 128.687L890.293 134.724L878.218 131.489L879.836 125.452Z" fill="white"/>
<path d="M867.762 122.217L879.836 125.452L878.218 131.489L866.144 128.254L867.762 122.217Z" fill="black"/>
<path d="M861.725 120.599L867.762 122.217L866.144 128.254L860.107 126.636L861.725 120.599Z" fill="#FF507F"/>
<path d="M932.551 146.047L956.699 152.517L955.082 158.554L930.933 152.084L932.551 146.047Z" fill="#FF507F"/>
<path d="M920.479 142.812L932.553 146.048L930.935 152.085L918.861 148.849L920.479 142.812Z" fill="white"/>
<path d="M908.404 139.577L920.479 142.812L918.861 148.85L906.787 145.614L908.404 139.577Z" fill="black"/>
<path d="M890.293 134.724L908.404 139.577L906.787 145.614L888.676 140.761L890.293 134.724Z" fill="#FF507F"/>
<path d="M878.219 131.489L890.293 134.724L888.675 140.761L876.601 137.526L878.219 131.489Z" fill="white"/>
<path d="M866.145 128.254L878.219 131.489L876.601 137.526L864.527 134.291L866.145 128.254Z" fill="black"/>
<path d="M860.107 126.636L866.145 128.253L864.527 134.29L858.49 132.673L860.107 126.636Z" fill="#FF507F"/>
<path d="M949.045 156.938L955.082 158.555L953.464 164.592L947.427 162.975L949.045 156.938Z" fill="#FF507F"/>
<path d="M930.934 152.085L936.971 153.702L935.353 159.739L929.316 158.122L930.934 152.085Z" fill="#FF507F"/>
<path d="M918.86 148.849L930.934 152.084L929.316 158.122L917.242 154.886L918.86 148.849Z" fill="white"/>
<path d="M906.785 145.614L918.859 148.849L917.242 154.886L905.168 151.651L906.785 145.614Z" fill="black"/>
<path d="M900.748 143.996L906.785 145.614L905.168 151.651L899.131 150.033L900.748 143.996Z" fill="#FF507F"/>
<path d="M888.674 140.761L894.711 142.378L893.093 148.415L887.056 146.798L888.674 140.761Z" fill="#FF507F"/>
<path d="M876.6 137.526L888.674 140.761L887.056 146.798L874.982 143.563L876.6 137.526Z" fill="white"/>
<path d="M864.526 134.29L876.6 137.526L874.982 143.563L862.908 140.327L864.526 134.29Z" fill="black"/>
<path d="M858.49 132.673L864.527 134.291L862.91 140.328L856.873 138.71L858.49 132.673Z" fill="#FF507F"/>
<path d="M899.131 150.033L935.354 159.739L933.736 165.776L897.514 156.07L899.131 150.033Z" fill="#FF507F"/>
<path d="M856.872 138.71L893.094 148.415L891.476 154.452L855.254 144.747L856.872 138.71Z" fill="#FF507F"/>
<rect x="206" y="18" width="254" height="146" fill="#2B2A29"/>
<rect x="206" y="5" width="254" height="13" fill="#FEFEFE"/>
<rect x="206" y="164" width="254" height="35" fill="#FEFEFE"/>
<rect x="252" y="179" width="197" height="5" fill="#C6C6C6"/>
<rect x="251" y="179" width="100" height="5" fill="#FF0000"/>
<rect x="218" y="171" width="5" height="2.87234" fill="#2B2A29"/>
<rect x="218" y="173.873" width="5" height="2.97872" fill="#2B2A29"/>
<rect x="223" y="173.873" width="5" height="2.97872" fill="#2B2A29"/>
<rect x="218" y="176.851" width="5" height="2.87234" fill="#2B2A29"/>
<rect x="223" y="176.851" width="5" height="2.87234" fill="#2B2A29"/>
<rect x="228" y="176.851" width="5" height="2.87234" fill="#2B2A29"/>
<rect x="218" y="179.724" width="5" height="2.87234" fill="#2B2A29"/>
<rect x="223" y="179.724" width="5" height="2.87234" fill="#2B2A29"/>
<rect x="228" y="179.724" width="5" height="2.87234" fill="#2B2A29"/>
<rect x="233" y="179.724" width="5" height="2.87234" fill="#2B2A29"/>
<rect x="218" y="182.596" width="5" height="2.87234" fill="#2B2A29"/>
<rect x="223" y="182.596" width="5" height="2.87234" fill="#2B2A29"/>
<rect x="228" y="182.596" width="5" height="2.87234" fill="#2B2A29"/>
<rect x="218" y="185.468" width="5" height="2.97872" fill="#2B2A29"/>
<rect x="223" y="185.468" width="5" height="2.97872" fill="#2B2A29"/>
<rect x="218" y="188.447" width="5" height="2.87234" fill="#2B2A29"/>
<rect x="304" y="73" width="58" height="36" fill="#FF0000"/>
<rect width="4" height="36" transform="matrix(-1 0 0 1 366 73)" fill="#FF0000"/>
<rect width="4" height="36" transform="matrix(-1 0 0 1 304 73)" fill="#FF0000"/>
<rect width="58" height="4" transform="matrix(1 0 0 -1 304 73)" fill="#FF0000"/>
<rect width="58" height="4" transform="matrix(1 0 0 -1 304 113)" fill="#FF0000"/>
<rect x="325" y="81.0002" width="5" height="2.87234" fill="white"/>
<rect x="325" y="83.8726" width="5" height="2.97872" fill="white"/>
<rect x="330" y="83.8726" width="5" height="2.97872" fill="white"/>
<rect x="325" y="86.8511" width="5" height="2.87234" fill="white"/>
<rect x="330" y="86.8511" width="5" height="2.87234" fill="white"/>
<rect x="335" y="86.8511" width="5" height="2.87234" fill="white"/>
<rect x="325" y="89.7236" width="5" height="2.87234" fill="white"/>
<rect x="330" y="89.7236" width="5" height="2.87234" fill="white"/>
<rect x="335" y="89.7236" width="5" height="2.87234" fill="white"/>
<rect x="340" y="89.7236" width="5" height="2.87234" fill="white"/>
<rect x="325" y="92.5957" width="5" height="2.87234" fill="white"/>
<rect x="330" y="92.5957" width="5" height="2.87234" fill="white"/>
<rect x="335" y="92.5957" width="5" height="2.87234" fill="white"/>
<rect x="325" y="95.4683" width="5" height="2.97872" fill="white"/>
<rect x="330" y="95.4683" width="5" height="2.97872" fill="white"/>
<rect x="325" y="98.4468" width="5" height="2.87234" fill="white"/>
<rect x="206" width="254" height="5" fill="#962B2B"/>
<rect x="206" y="199" width="254" height="5" fill="#962B2B"/>
<rect x="206" y="5" width="194" height="4.99999" transform="rotate(90 206 5)" fill="#962B2B"/>
<rect x="465" y="5" width="194" height="4.99999" transform="rotate(90 465 5)" fill="#962B2B"/>
<rect width="254" height="194" transform="translate(562 5)" fill="white"/>
<rect x="578" y="24" width="93" height="175" fill="black" fill-opacity="0.2"/>
<rect opacity="0.4" x="586" y="34" width="77" height="8" fill="black"/>
<rect opacity="0.4" x="689" y="34" width="77" height="8" fill="black"/>
<rect opacity="0.4" x="689" y="112" width="77" height="8" fill="black"/>
<rect opacity="0.2" x="701" y="50" width="99" height="8" fill="black"/>
<rect opacity="0.2" x="701" y="128" width="99" height="8" fill="black"/>
<rect opacity="0.2" x="701" y="62" width="99" height="8" fill="black"/>
<rect opacity="0.2" x="701" y="140" width="99" height="8" fill="black"/>
<rect opacity="0.2" x="701" y="74" width="99" height="8" fill="black"/>
<rect opacity="0.2" x="701" y="152" width="99" height="8" fill="black"/>
<rect opacity="0.2" x="701" y="86" width="99" height="8" fill="black"/>
<rect opacity="0.2" x="701" y="164" width="99" height="8" fill="black"/>
<rect opacity="0.9" x="689" y="50" width="8" height="8" fill="black"/>
<rect opacity="0.9" x="689" y="128" width="8" height="8" fill="black"/>
<rect opacity="0.9" x="689" y="62" width="8" height="8" fill="black"/>
<rect opacity="0.9" x="689" y="140" width="8" height="8" fill="black"/>
<rect opacity="0.9" x="689" y="74" width="8" height="8" fill="black"/>
<rect opacity="0.9" x="689" y="152" width="8" height="8" fill="black"/>
<rect opacity="0.9" x="689" y="86" width="8" height="8" fill="black"/>
<rect opacity="0.9" x="689" y="164" width="8" height="8" fill="black"/>
<rect opacity="0.4" x="586" y="46" width="77" height="8" fill="black"/>
<rect opacity="0.25" x="586" y="71" width="18" height="9" fill="black"/>
<rect opacity="0.25" x="606" y="71" width="17" height="9" fill="black"/>
<rect x="626" y="71" width="17" height="9" fill="black"/>
<rect opacity="0.25" x="646" y="71" width="17" height="9" fill="black"/>
<g opacity="0.8">
<path d="M645.875 164.625H602.125V167.75H645.875V164.625Z" fill="black"/>
<path d="M645.875 167.75H602.125V170.875H645.875V167.75Z" fill="black"/>
<path d="M645.875 170.875H602.125V174H645.875V170.875Z" fill="black"/>
<path d="M645.875 174H602.125V177.125H645.875V174Z" fill="black"/>
<path d="M608.375 177.125H602.125V180.25H608.375V177.125Z" fill="black"/>
<path d="M645.875 177.125H611.5V180.25H645.875V177.125Z" fill="black"/>
<path d="M608.375 180.25H602.125V183.375H608.375V180.25Z" fill="black"/>
<path d="M645.875 180.25H611.5V183.375H645.875V180.25Z" fill="black"/>
<path d="M608.375 183.375H602.125V186.5H608.375V183.375Z" fill="black"/>
<path d="M645.875 183.375H611.5V186.5H645.875V183.375Z" fill="black"/>
<path d="M608.375 186.5H602.125V189.625H608.375V186.5Z" fill="black"/>
<path d="M645.875 186.5H611.5V189.625H645.875V186.5Z" fill="black"/>
<path d="M608.375 189.625H602.125V192.75H608.375V189.625Z" fill="black"/>
<path d="M645.875 189.625H611.5V192.75H645.875V189.625Z" fill="black"/>
<path d="M608.375 192.75H602.125V195.875H608.375V192.75Z" fill="black"/>
<path d="M645.875 192.75H611.5V195.875H645.875V192.75Z" fill="black"/>
<path d="M608.375 195.875H602.125V199H608.375V195.875Z" fill="black"/>
<path d="M645.875 195.875H611.5V199H645.875V195.875Z" fill="black"/>
<path d="M614.625 114.625H599V117.75H614.625V114.625Z" fill="black"/>
<path d="M649 114.625H633.375V117.75H649V114.625Z" fill="black"/>
<path d="M602.125 117.75H599V120.875H602.125V117.75Z" fill="black"/>
<path d="M608.375 117.75H602.125V120.875H608.375V117.75Z" fill="black"/>
<path d="M614.625 117.75H608.375V120.875H614.625V117.75Z" fill="black"/>
<path d="M639.625 117.75H633.375V120.875H639.625V117.75Z" fill="black"/>
<path d="M645.875 117.75H639.625V120.875H645.875V117.75Z" fill="black"/>
<path d="M649 117.75H645.875V120.875H649V117.75Z" fill="black"/>
<path d="M649 120.875H599V124H649V120.875Z" fill="black"/>
<path d="M649 124H599V127.125H649V124Z" fill="black"/>
<path d="M649 127.125H599V130.25H649V127.125Z" fill="black"/>
<path d="M649 130.25H599V133.375H649V130.25Z" fill="black"/>
<path d="M649 133.375H599V136.5H649V133.375Z" fill="black"/>
<path d="M649 136.5H599V139.625H649V136.5Z" fill="black"/>
<path d="M649 139.625H599V142.75H649V139.625Z" fill="black"/>
<path d="M649 142.75H599V145.875H649V142.75Z" fill="black"/>
<path d="M649 145.875H599V149H649V145.875Z" fill="black"/>
<path d="M649 149H599V152.125H649V149Z" fill="black"/>
<path d="M605.25 152.125H599V155.25H605.25V152.125Z" fill="black"/>
<path d="M611.5 152.125H605.25V155.25H611.5V152.125Z" fill="black"/>
<path d="M617.75 152.125H611.5V155.25H617.75V152.125Z" fill="black"/>
<path d="M624 152.125H617.75V155.25H624V152.125Z" fill="black"/>
<path d="M627.125 152.125H624V155.25H627.125V152.125Z" fill="black"/>
<path d="M630.25 152.125H627.125V155.25H630.25V152.125Z" fill="black"/>
<path d="M633.375 152.125H630.25V155.25H633.375V152.125Z" fill="black"/>
<path d="M639.625 152.125H633.375V155.25H639.625V152.125Z" fill="black"/>
<path d="M642.75 152.125H639.625V155.25H642.75V152.125Z" fill="black"/>
<path d="M649 152.125H642.75V155.25H649V152.125Z" fill="black"/>
<path d="M605.25 155.25H599V158.375H605.25V155.25Z" fill="black"/>
<path d="M611.5 155.25H605.25V158.375H611.5V155.25Z" fill="black"/>
<path d="M617.75 155.25H611.5V158.375H617.75V155.25Z" fill="black"/>
<path d="M639.625 155.25H617.75V158.375H639.625V155.25Z" fill="black"/>
<path d="M642.75 155.25H639.625V158.375H642.75V155.25Z" fill="black"/>
<path d="M649 155.25H642.75V158.375H649V155.25Z" fill="black"/>
<path d="M605.25 158.375H599V161.5H605.25V158.375Z" fill="black"/>
<path d="M611.5 158.375H605.25V161.5H611.5V158.375Z" fill="black"/>
<path d="M617.75 158.375H611.5V161.5H617.75V158.375Z" fill="black"/>
<path d="M624 158.375H617.75V161.5H624V158.375Z" fill="black"/>
<path d="M630.25 158.375H624V161.5H630.25V158.375Z" fill="black"/>
<path d="M636.5 158.375H630.25V161.5H636.5V158.375Z" fill="black"/>
<path d="M642.75 158.375H636.5V161.5H642.75V158.375Z" fill="black"/>
<path d="M649 158.375H642.75V161.5H649V158.375Z" fill="black"/>
<path d="M605.25 161.5H599V164.625H605.25V161.5Z" fill="black"/>
<path d="M611.5 161.5H605.25V164.625H611.5V161.5Z" fill="black"/>
<path d="M617.75 161.5H611.5V164.625H617.75V161.5Z" fill="black"/>
<path d="M624 161.5H617.75V164.625H624V161.5Z" fill="black"/>
<path d="M630.25 161.5H624V164.625H630.25V161.5Z" fill="black"/>
<path d="M636.5 161.5H630.25V164.625H636.5V161.5Z" fill="black"/>
<path d="M642.75 161.5H636.5V164.625H642.75V161.5Z" fill="black"/>
<path d="M649 161.5H642.75V164.625H649V161.5Z" fill="black"/>
<path d="M645.875 164.625H602.125V167.75H645.875V164.625Z" fill="black"/>
<path d="M624 133.375H605.25V136.5H624V133.375Z" fill="black"/>
<path d="M645.875 133.375H627.125V136.5H645.875V133.375Z" fill="black"/>
<path d="M608.375 136.5H605.25V139.625H608.375V136.5Z" fill="black"/>
<path d="M614.625 136.5H608.375V139.625H614.625V136.5Z" fill="black"/>
<path d="M620.875 136.5H614.625V139.625H620.875V136.5Z" fill="black"/>
<path d="M624 136.5H620.875V139.625H624V136.5Z" fill="black"/>
<path d="M630.25 136.5H627.125V139.625H630.25V136.5Z" fill="black"/>
<path d="M636.5 136.5H630.25V139.625H636.5V136.5Z" fill="black"/>
<path d="M642.75 136.5H636.5V139.625H642.75V136.5Z" fill="black"/>
<path d="M645.875 136.5H642.75V139.625H645.875V136.5Z" fill="black"/>
<path d="M608.375 139.625H595.875V142.75H608.375V139.625Z" fill="black"/>
<path d="M614.625 139.625H608.375V142.75H614.625V139.625Z" fill="black"/>
<path d="M620.875 139.625H614.625V142.75H620.875V139.625Z" fill="black"/>
<path d="M630.25 139.625H620.875V142.75H630.25V139.625Z" fill="black"/>
<path d="M636.5 139.625H630.25V142.75H636.5V139.625Z" fill="black"/>
<path d="M642.75 139.625H636.5V142.75H642.75V139.625Z" fill="black"/>
<path d="M645.875 139.625H642.75V142.75H645.875V139.625Z" fill="black"/>
<path d="M599 142.75H595.875V145.875H599V142.75Z" fill="black"/>
<path d="M608.375 142.75H605.25V145.875H608.375V142.75Z" fill="black"/>
<path d="M614.625 142.75H608.375V145.875H614.625V142.75Z" fill="black"/>
<path d="M620.875 142.75H614.625V145.875H620.875V142.75Z" fill="black"/>
<path d="M624 142.75H620.875V145.875H624V142.75Z" fill="black"/>
<path d="M630.25 142.75H627.125V145.875H630.25V142.75Z" fill="black"/>
<path d="M636.5 142.75H630.25V145.875H636.5V142.75Z" fill="black"/>
<path d="M642.75 142.75H636.5V145.875H642.75V142.75Z" fill="black"/>
<path d="M645.875 142.75H642.75V145.875H645.875V142.75Z" fill="black"/>
<path d="M599 145.875H595.875V149H599V145.875Z" fill="black"/>
<path d="M608.375 145.875H605.25V149H608.375V145.875Z" fill="black"/>
<path d="M614.625 145.875H608.375V149H614.625V145.875Z" fill="black"/>
<path d="M620.875 145.875H614.625V149H620.875V145.875Z" fill="black"/>
<path d="M624 145.875H620.875V149H624V145.875Z" fill="black"/>
<path d="M630.25 145.875H627.125V149H630.25V145.875Z" fill="black"/>
<path d="M636.5 145.875H630.25V149H636.5V145.875Z" fill="black"/>
<path d="M642.75 145.875H636.5V149H642.75V145.875Z" fill="black"/>
<path d="M645.875 145.875H642.75V149H645.875V145.875Z" fill="black"/>
<path d="M624 149H605.25V152.125H624V149Z" fill="black"/>
<path d="M645.875 149H627.125V152.125H645.875V149Z" fill="black"/>
</g>
<rect x="562" width="254" height="5" fill="#129916"/>
<rect x="562" y="199" width="254" height="5" fill="#129916"/>
<rect x="562" y="5" width="194" height="4.99999" transform="rotate(90 562 5)" fill="#129916"/>
<rect x="821" y="5" width="194" height="4.99999" transform="rotate(90 821 5)" fill="#129916"/>
</svg>
