<svg width="68" height="26" viewBox="0 0 68 26" fill="none" xmlns="http://www.w3.org/2000/svg">
<path d="M38.0535 0.00012207H12.6846V4.22827H38.0535V0.00012207Z" fill="#2B83F6"/>
<path d="M67.6501 0.00012207H42.2812V4.22827H67.6501V0.00012207Z" fill="#2B83F6"/>
<path d="M16.9127 4.22827H12.6846V8.45642H16.9127V4.22827Z" fill="#2B83F6"/>
<path d="M25.3684 4.22827H16.9121V8.45642H25.3684V4.22827Z" fill="white"/>
<path d="M33.8254 4.22827H25.3691V8.45642H33.8254V4.22827Z" fill="black"/>
<path d="M38.0533 4.22827H33.8252V8.45642H38.0533V4.22827Z" fill="#2B83F6"/>
<path d="M46.5094 4.22827H42.2812V8.45642H46.5094V4.22827Z" fill="#2B83F6"/>
<path d="M54.9661 4.22827H46.5098V8.45642H54.9661V4.22827Z" fill="white"/>
<path d="M63.4221 4.22827H54.9658V8.45642H63.4221V4.22827Z" fill="black"/>
<path d="M67.65 4.22827H63.4219V8.45642H67.65V4.22827Z" fill="#2B83F6"/>
<path d="M16.9126 8.45642H0V12.6846H16.9126V8.45642Z" fill="#2B83F6"/>
<path d="M25.3684 8.45642H16.9121V12.6846H25.3684V8.45642Z" fill="white"/>
<path d="M33.8254 8.45642H25.3691V12.6846H33.8254V8.45642Z" fill="black"/>
<path d="M46.5096 8.45642H33.8252V12.6846H46.5096V8.45642Z" fill="#2B83F6"/>
<path d="M54.9661 8.45642H46.5098V12.6846H54.9661V8.45642Z" fill="white"/>
<path d="M63.4221 8.45642H54.9658V12.6846H63.4221V8.45642Z" fill="black"/>
<path d="M67.65 8.45642H63.4219V12.6846H67.65V8.45642Z" fill="#2B83F6"/>
<path d="M4.22815 12.6846H0V16.9127H4.22815V12.6846Z" fill="#2B83F6"/>
<path d="M16.9127 12.6846H12.6846V16.9127H16.9127V12.6846Z" fill="#2B83F6"/>
<path d="M25.3684 12.6846H16.9121V16.9127H25.3684V12.6846Z" fill="white"/>
<path d="M33.8254 12.6846H25.3691V16.9127H33.8254V12.6846Z" fill="black"/>
<path d="M38.0533 12.6846H33.8252V16.9127H38.0533V12.6846Z" fill="#2B83F6"/>
<path d="M46.5094 12.6846H42.2812V16.9127H46.5094V12.6846Z" fill="#2B83F6"/>
<path d="M54.9661 12.6846H46.5098V16.9127H54.9661V12.6846Z" fill="white"/>
<path d="M63.4221 12.6846H54.9658V16.9127H63.4221V12.6846Z" fill="black"/>
<path d="M67.65 12.6846H63.4219V16.9127H67.65V12.6846Z" fill="#2B83F6"/>
<path d="M4.22815 16.9127H0V21.1409H4.22815V16.9127Z" fill="#2B83F6"/>
<path d="M16.9127 16.9127H12.6846V21.1409H16.9127V16.9127Z" fill="#2B83F6"/>
<path d="M25.3684 16.9127H16.9121V21.1409H25.3684V16.9127Z" fill="white"/>
<path d="M33.8254 16.9127H25.3691V21.1409H33.8254V16.9127Z" fill="black"/>
<path d="M38.0533 16.9127H33.8252V21.1409H38.0533V16.9127Z" fill="#2B83F6"/>
<path d="M46.5094 16.9127H42.2812V21.1409H46.5094V16.9127Z" fill="#2B83F6"/>
<path d="M54.9661 16.9127H46.5098V21.1409H54.9661V16.9127Z" fill="white"/>
<path d="M63.4221 16.9127H54.9658V21.1409H63.4221V16.9127Z" fill="black"/>
<path d="M67.65 16.9127H63.4219V21.1409H67.65V16.9127Z" fill="#2B83F6"/>
<path d="M38.0535 21.1409H12.6846V25.369H38.0535V21.1409Z" fill="#2B83F6"/>
<path d="M67.6501 21.1409H42.2812V25.369H67.6501V21.1409Z" fill="#2B83F6"/>
</svg>
